<?xml version="1.0" encoding="UTF-8"?>
<svg xmlns="http://www.w3.org/2000/svg" viewBox="0 0 24 24" fill="currentColor">
  <path fill-rule="evenodd" d="M12 2C6.477 2 2 6.484 2 12.017c0 4.425 2.865 8.179 6.839 9.504.5.092.682-.217.682-.483 0-.237-.009-.868-.014-1.703-2.782.604-3.369-1.342-3.369-1.342-.454-1.154-1.11-1.462-1.11-1.462-.908-.62.069-.607.069-.607 1.004.07 1.532 1.032 1.532 1.032.892 1.53 2.341 1.088 2.91.832.091-.647.35-1.088.636-1.339-2.221-.253-4.555-1.113-4.555-4.95 0-1.093.39-1.988 1.029-2.688-.103-.253-.446-1.27.098-2.646 0 0 .84-.27 2.75 1.026A9.564 9.564 0 0 1 12 6.844c.851.004 1.706.115 2.505.337 1.909-1.296 2.748-1.026 2.748-1.026.546 1.376.203 2.393.1 2.646.64.7 1.028 1.595 1.028 2.688 0 3.846-2.337 4.695-4.566 4.944.36.31.68.92.68 1.855 0 1.338-.012 2.418-.012 2.747 0 .268.18.58.688.481A10.02 10.02 0 0 0 22 12.017C22 6.484 17.523 2 12 2z" clip-rule="evenodd"/>
</svg>
